<svg width="40" height="25" viewBox="0 0 40 25" fill="none" xmlns="http://www.w3.org/2000/svg">
<path d="M26.3578 4.75399C26.4459 4.6742 26.534 4.59608 26.6205 4.51795C26.795 4.36336 26.9646 4.20545 27.1308 4.04919C27.292 3.88296 27.4832 3.77325 27.6511 3.63196C27.824 3.49732 27.9902 3.3577 28.1597 3.23303C28.5104 3.00863 28.8362 2.76094 29.167 2.57145C29.4978 2.38695 29.8053 2.18415 30.1112 2.04618C30.2625 1.96805 30.4071 1.89325 30.545 1.82178C30.688 1.75861 30.8243 1.69711 30.9539 1.64059C31.4742 1.39957 31.9048 1.25329 32.2006 1.14523C32.4982 1.04882 32.6577 0.998956 32.6577 0.998956L32.6727 0.99397C32.7259 0.977347 32.7708 0.934127 32.7891 0.877613C32.819 0.782864 32.7658 0.681468 32.6727 0.651549C32.6727 0.651549 32.4932 0.595034 32.1641 0.535191C31.9995 0.508596 31.7917 0.468702 31.5507 0.45374C31.308 0.433793 31.0254 0.403872 30.7112 0.413847C30.5533 0.415509 30.3855 0.412184 30.2109 0.422158C30.0364 0.437118 29.8535 0.45374 29.664 0.472026C29.2784 0.498622 28.8744 0.58672 28.434 0.676481C28.2096 0.71305 27.9918 0.782864 27.7641 0.852677C27.5347 0.924154 27.2987 0.99729 27.0576 1.07209C26.5955 1.26657 26.0902 1.45939 25.5982 1.722C25.3555 1.85831 25.1062 1.9996 24.8552 2.15086C24.7288 2.22566 24.6025 2.30212 24.4745 2.37858C24.3548 2.46668 24.2335 2.55478 24.1121 2.64288C23.8711 2.82738 23.6251 3.01355 23.3741 3.20305C23.1148 3.38589 22.9087 3.62359 22.671 3.84135C22.4399 4.06741 22.2056 4.29513 21.9696 4.5262C21.7584 4.77719 21.5473 5.03318 21.3396 5.29747C21.1351 5.56343 20.9124 5.82607 20.7229 6.10862C20.5417 6.39619 20.3705 6.69373 20.1926 6.99126C20.0247 7.29545 19.8369 7.58632 19.6873 7.90879C19.541 8.23792 19.4047 8.57369 19.2668 8.91113C19.1288 9.2469 18.9908 9.58598 18.8628 9.92675C18.7747 10.2426 18.685 10.5617 18.5952 10.8809C18.5054 11.2 18.4157 11.5208 18.3259 11.8416L18.1747 12.3702L18.0566 12.8074C18.0151 12.9537 17.9818 13.1016 17.9353 13.2462L17.7774 13.6701L17.6195 14.0973C17.5646 14.2385 17.4948 14.3715 17.4333 14.5112C16.928 15.6132 16.2598 16.6405 15.4586 17.548C14.6557 18.454 13.7432 19.2568 12.7658 19.9284C11.79 20.6049 10.7578 21.1485 9.74382 21.6056C8.72654 22.0594 7.72254 22.4118 6.77671 22.6877C4.88344 23.2446 3.2345 23.5006 2.08097 23.6501C0.922372 23.7947 0.257478 23.8047 0.257478 23.8047C0.172704 23.8064 0.0995674 23.8695 0.0879292 23.956C0.0762938 24.0507 0.142784 24.1388 0.239193 24.1505H0.242517C0.242517 24.1505 0.92239 24.2369 2.11252 24.2618C2.70758 24.2751 3.43235 24.2685 4.26511 24.217C5.09622 24.1654 6.03707 24.0823 7.05601 23.9111C9.08724 23.5687 11.4777 22.9487 13.8313 21.6688C15.0049 21.0321 16.1684 20.2326 17.2057 19.2352C18.2462 18.2462 19.1688 17.076 19.9001 15.7911C19.9916 15.6298 20.0913 15.4736 20.1761 15.309L20.4204 14.8137C20.585 14.4829 20.7446 14.1488 20.8775 13.808L21.087 13.2977L21.1385 13.1697L21.1651 13.1065L21.1717 13.0899C21.1933 13.0251 21.1485 13.1597 21.1551 13.1414L21.1667 13.1132L21.2648 12.8821C21.3978 12.5763 21.5291 12.2704 21.6604 11.9663C21.7918 11.6621 21.9231 11.3595 22.0544 11.057C22.2023 10.8044 22.3386 10.5517 22.4733 10.3007C22.6079 10.0497 22.7442 9.80205 22.8656 9.54941C23.0035 9.30174 23.1681 9.06239 23.3127 8.81971C23.4573 8.57536 23.6019 8.33435 23.7366 8.09001C23.8862 7.8573 24.0507 7.6412 24.2003 7.41682C24.3566 7.19574 24.4962 6.96635 24.6475 6.74861C24.812 6.54415 24.9733 6.34136 25.1328 6.14188C25.2126 6.04049 25.2907 5.94075 25.3705 5.84102C25.447 5.73796 25.5251 5.63823 25.6132 5.55345C25.7844 5.37227 25.9523 5.19441 26.1185 5.01822C26.1967 4.93178 26.2781 4.84209 26.3578 4.75399Z" fill="#4AF6CD"/>
<path fill-rule="evenodd" clip-rule="evenodd" d="M38.8297 23.4509C39.4663 23.7352 39.837 23.8731 39.837 23.8731C39.9002 23.8964 39.9335 23.9662 39.9086 24.0261C39.887 24.0809 39.8288 24.1125 39.7706 24.1025C39.7706 24.1025 39.3733 24.0261 38.6901 23.8515C38.0053 23.6803 37.0395 23.3861 35.8992 22.9589C35.809 22.9233 35.7172 22.8877 35.6241 22.8517C35.4259 22.7748 35.2219 22.6958 35.0149 22.6098C34.8727 22.5473 34.7283 22.4844 34.5819 22.4207C34.4168 22.3488 34.2491 22.2758 34.0791 22.2009C33.9573 22.1407 33.8341 22.0799 33.7097 22.0186C33.5113 21.9209 33.3099 21.8216 33.1067 21.7205C32.8637 21.5847 32.617 21.4461 32.3665 21.3053C32.2829 21.2583 32.1988 21.2111 32.1143 21.1637C32.0087 21.0964 31.9026 21.0288 31.7962 20.961C31.571 20.8174 31.3439 20.6726 31.1137 20.527C30.8778 20.3603 30.6454 20.1841 30.4103 20.0059C30.3173 19.9355 30.2238 19.8646 30.1296 19.794C29.9626 19.6482 29.7951 19.5009 29.6271 19.3533C29.4791 19.2232 29.3308 19.0929 29.1821 18.9629C29.0935 18.8692 29.0041 18.7757 28.9144 18.6819C28.7082 18.4662 28.5006 18.249 28.2978 18.0254L27.8939 17.5084L27.6928 17.2491L27.5897 17.1195L27.5648 17.0879L27.5515 17.0713C27.5492 17.0672 27.5484 17.0659 27.5484 17.0659C27.5486 17.0662 27.5663 17.0974 27.5182 17.0164L27.5133 17.0081L27.4717 16.9449L27.1459 16.4446C27.1126 16.3908 27.0789 16.3411 27.0453 16.2913C26.9698 16.1797 26.8942 16.068 26.8218 15.9094C26.7727 15.8075 26.7208 15.7054 26.6687 15.603C26.5076 15.2861 26.345 14.9661 26.2583 14.6394C26.244 14.5956 26.2296 14.5519 26.2151 14.5083C26.1588 14.3379 26.1025 14.1678 26.0588 13.9945C26.0434 13.8993 26.0283 13.8043 26.0132 13.7097C25.9925 13.5797 25.9719 13.4502 25.9508 13.3213C25.9462 13.2773 25.9404 13.2338 25.9347 13.1904C25.9256 13.1224 25.9166 13.0546 25.9125 12.9855L25.9159 12.6431C25.9187 12.5783 25.9202 12.5138 25.9217 12.4495C25.9254 12.2878 25.9291 12.1276 25.9541 11.9682C25.9822 11.7954 26.0183 11.6255 26.0539 11.4578C26.0645 11.4078 26.0751 11.358 26.0854 11.3083C26.1109 11.1642 26.1674 11.0245 26.223 10.8873C26.2507 10.8188 26.2782 10.7508 26.3015 10.6833L26.4212 10.3841C26.4499 10.3201 26.4873 10.2583 26.5244 10.1973C26.5431 10.1663 26.5618 10.1356 26.5791 10.1048C26.6132 10.0501 26.646 9.99522 26.6785 9.94077C26.7536 9.815 26.8273 9.6916 26.9132 9.57791C26.9239 9.56529 26.9347 9.55269 26.9454 9.54012C27.2011 9.23973 27.4443 8.95402 27.7426 8.74183C27.9589 8.54624 28.2106 8.41323 28.448 8.28774C28.5153 8.25219 28.5814 8.21725 28.6452 8.18166C28.7579 8.13144 28.8733 8.09295 28.9854 8.05555C29.0255 8.0422 29.0651 8.02899 29.104 8.01543C29.1189 8.01041 29.1337 8.00536 29.1485 8.00034C29.2802 7.95555 29.4066 7.91253 29.5411 7.89908C30.1129 7.78438 30.6183 7.81597 31.0056 7.89409C31.2017 7.93565 31.3696 7.98219 31.5126 8.02375C31.6538 8.08525 31.7702 8.13844 31.8616 8.18498C32.0445 8.27641 32.1359 8.32794 32.1359 8.32794C32.1957 8.36284 32.2157 8.43931 32.1808 8.49915C32.1608 8.53405 32.1276 8.55566 32.091 8.56065L32.0744 8.56397C32.0744 8.56397 31.973 8.57893 31.7835 8.60719C31.7084 8.62085 31.6198 8.63114 31.5205 8.64267C31.499 8.64517 31.4769 8.64774 31.4544 8.65041C31.4119 8.66213 31.3674 8.67517 31.3212 8.68871C31.2299 8.71546 31.1321 8.74414 31.0305 8.76842C30.9245 8.78552 30.8154 8.83622 30.7031 8.88838C30.6517 8.91228 30.5996 8.9365 30.5468 8.95792C30.4313 8.99345 30.321 9.06311 30.2085 9.13418C30.1526 9.1695 30.0961 9.20517 30.0382 9.23717C29.9216 9.30664 29.8126 9.39952 29.7031 9.49291C29.6501 9.53806 29.597 9.58334 29.5428 9.62613C29.4938 9.6848 29.4415 9.73957 29.3892 9.79438C29.2888 9.89951 29.1882 10.0048 29.1106 10.1381C28.8347 10.4988 28.6452 10.9509 28.5388 11.4413C28.5315 11.4877 28.5201 11.5325 28.5087 11.5774C28.4892 11.6546 28.4696 11.7318 28.4706 11.8169C28.4684 11.8467 28.4663 11.8765 28.4642 11.9064C28.4571 12.0084 28.4499 12.111 28.4357 12.2126C28.4293 12.2859 28.4335 12.3627 28.4377 12.44C28.4412 12.503 28.4446 12.5662 28.4424 12.6281C28.4424 12.6455 28.4425 12.663 28.4426 12.6804C28.4429 12.7329 28.4432 12.7856 28.4407 12.8392C28.443 12.8889 28.451 12.9394 28.4589 12.9901C28.4624 13.0124 28.4659 13.0347 28.469 13.057C28.4768 13.1343 28.4842 13.212 28.4915 13.2899C28.4983 13.3612 28.5051 13.4327 28.5122 13.5041C28.5488 13.6554 28.582 13.81 28.6119 13.9662C28.6419 14.1756 28.6999 14.365 28.7588 14.5571C28.7915 14.6639 28.8244 14.7715 28.853 14.8837C28.8696 14.9858 28.9303 15.1167 28.9909 15.2474C29.0151 15.2997 29.0394 15.352 29.0607 15.4024L29.3068 15.9459L29.3367 16.0141L29.34 16.019L29.3433 16.0257L29.4115 16.1421L29.5511 16.3714L29.832 16.8369C29.9586 17.0019 30.0846 17.1669 30.2104 17.3316C30.3077 17.4589 30.4048 17.5861 30.5019 17.7129L31.2598 18.5307C31.5325 18.785 31.8034 19.0377 32.0727 19.287C32.1667 19.3651 32.2604 19.443 32.3537 19.5206C32.5425 19.6776 32.7297 19.8333 32.9155 19.9868C33.2064 20.2029 33.4939 20.4157 33.7748 20.6234C34.0657 20.8213 34.3516 21.0141 34.6292 21.2003C34.9151 21.3781 35.1927 21.551 35.462 21.7189C35.6348 21.8222 35.8063 21.9194 35.9739 22.0145C36.0707 22.0693 36.1661 22.1235 36.2598 22.1777C36.7768 22.4636 37.2605 22.7129 37.6944 22.9223C38.1299 23.1334 38.5122 23.3096 38.8297 23.4509ZM29.32 15.9844C29.3196 15.984 29.3191 15.9833 29.3183 15.9825L29.3266 15.9975L29.3299 16.0008C29.3266 15.9958 29.3216 15.9877 29.32 15.9844C29.32 15.9845 29.3199 15.9843 29.32 15.9844Z" fill="#4AF6CD"/>
<path d="M31.4876 2.85229C30.7064 3.01353 30.2127 3.21798 30.2127 3.21798C30.1811 3.23128 30.1562 3.26286 30.1562 3.29943C30.1545 3.34764 30.1944 3.38753 30.2426 3.38753C30.2443 3.38753 30.7596 3.39086 31.5192 3.47895C31.8982 3.51552 32.3337 3.59198 32.7925 3.67177C33.2496 3.77483 33.7333 3.86791 34.1971 4.01419C34.3134 4.05408 34.4298 4.08567 34.5428 4.12888C34.6542 4.17875 34.7639 4.22696 34.8736 4.27516C35.093 4.36991 35.2991 4.47463 35.5069 4.54611C35.718 4.60927 35.9225 4.66412 36.1236 4.70069C36.3297 4.73394 36.5259 4.76552 36.7071 4.79378C36.8916 4.82204 37.0711 4.83201 37.234 4.84032C37.3919 4.85694 37.5382 4.86692 37.6628 4.86692C37.9138 4.8719 38.0801 4.85362 38.0801 4.85362L38.0867 4.85196C38.095 4.8503 38.1017 4.84863 38.11 4.84697C38.1665 4.82702 38.1948 4.76386 38.1748 4.70735C38.1748 4.70735 38.12 4.55608 37.9853 4.33334C37.9188 4.21865 37.8291 4.09066 37.7177 3.9477C37.6047 3.80974 37.4634 3.67344 37.3021 3.53215C37.2224 3.45901 37.1343 3.38919 37.0428 3.31938C36.9464 3.25954 36.85 3.19139 36.7436 3.13321C36.5375 3.00522 36.3065 2.89052 36.0538 2.82237C35.8028 2.74591 35.5335 2.70601 35.2576 2.69438C34.9833 2.66945 34.7074 2.65781 34.4331 2.64451C34.1605 2.61958 33.8879 2.6229 33.622 2.61792C33.356 2.61127 33.0934 2.63786 32.8424 2.65116C32.5897 2.68108 32.3504 2.69438 32.1227 2.73594C31.8966 2.77417 31.6838 2.81073 31.4876 2.85229Z" fill="#4AF6CD"/>
<path d="M37.1093 9.0025C37.2756 9.0773 37.4052 9.16041 37.5349 9.22025C37.7726 9.35323 37.9388 9.43302 37.9388 9.43302L37.9488 9.43801C37.9621 9.44466 37.977 9.44798 37.9936 9.44798C38.0468 9.44632 38.0901 9.40144 38.0901 9.34658C38.0901 9.34658 38.0884 9.3017 38.0867 9.21859C38.0817 9.13548 38.0768 9.01081 38.0435 8.85955C38.0069 8.71161 37.9621 8.52378 37.8706 8.33096C37.7892 8.12816 37.6662 7.92038 37.5133 7.70593C37.4351 7.60121 37.347 7.49483 37.2556 7.38845C37.1575 7.29038 37.0595 7.18067 36.9481 7.08426C36.7287 6.88646 36.476 6.70361 36.1951 6.55898C35.9142 6.41603 35.605 6.31131 35.2909 6.23319C34.9767 6.14841 34.6592 6.08192 34.3467 6.00879C33.7217 5.86418 33.0967 5.76278 32.5099 5.71624C31.9248 5.66138 31.3779 5.65141 30.9109 5.6564C29.9784 5.66803 29.365 5.76112 29.365 5.76112C29.3284 5.7661 29.2985 5.79436 29.2902 5.83093C29.2819 5.87913 29.3118 5.92568 29.36 5.93399C29.36 5.93399 29.9601 6.04868 30.8361 6.27973C31.2732 6.39277 31.7769 6.5407 32.3055 6.71522C32.5698 6.8 32.8374 6.90306 33.11 6.99947C33.3793 7.0992 33.6502 7.20891 33.9129 7.32692C34.1755 7.44661 34.4298 7.58291 34.6642 7.73251C34.9019 7.88045 35.1229 8.03171 35.3457 8.15472C35.5685 8.27606 35.7829 8.38244 35.9973 8.47553C36.2084 8.5736 36.4079 8.66669 36.5924 8.75312C36.7818 8.84288 36.9564 8.9277 37.1093 9.0025Z" fill="#4AF6CD"/>
<path d="M36.1817 11.0889C36.1185 10.9576 36.0288 10.8346 35.929 10.7032C35.8309 10.5703 35.7046 10.4639 35.565 10.3625C35.4254 10.2628 35.2558 10.2029 35.0879 10.1381C34.9184 10.0816 34.7472 10.0267 34.5826 9.96522C34.2502 9.85385 33.9194 9.74746 33.6019 9.69095C33.2877 9.62113 32.9885 9.58955 32.7358 9.56296C32.2305 9.51143 31.8881 9.53304 31.8881 9.53304C31.8632 9.5347 31.8399 9.54966 31.8266 9.57459C31.81 9.61116 31.8249 9.65438 31.8615 9.671C31.8615 9.671 32.1624 9.81229 32.5946 10.0384C32.809 10.1564 33.0533 10.2977 33.3093 10.4523C33.434 10.532 33.5637 10.6135 33.6933 10.6949C33.8246 10.7747 33.9493 10.8678 34.0756 10.9542C34.197 11.0473 34.3133 11.1487 34.4197 11.2534C34.5194 11.3648 34.6275 11.4612 34.7305 11.5443C34.8319 11.6274 34.9549 11.6823 35.0646 11.7388C35.1727 11.797 35.2907 11.8385 35.3988 11.8818C35.5018 11.9267 35.6082 11.9632 35.7113 11.9931C35.8143 12.0231 35.8958 12.058 35.9772 12.0796C36.1368 12.1278 36.2532 12.1477 36.2532 12.1477L36.2581 12.1494C36.3097 12.1594 36.3595 12.1245 36.3695 12.0729C36.3695 12.0729 36.3895 11.9632 36.3778 11.782C36.3712 11.6923 36.3612 11.5776 36.3279 11.4629C36.293 11.3482 36.2465 11.2219 36.1817 11.0889Z" fill="#4AF6CD"/>
</svg>
